<svg width="601" height="100" viewBox="0 0 601 100" fill="none" xmlns="http://www.w3.org/2000/svg">
<g clip-path="url(#clip0_133_609)">
<path d="M1.00146 19.4499C11.248 13.9306 21.2106 8.13488 31.8228 4.00123C41.962 0.0518295 50.4225 4.70189 50.2059 17.0601C49.786 41.0176 50.0848 64.9877 50.0821 88.9526C50.0813 95.982 49.0971 96.8596 42.2635 97.027C29.2687 97.3454 28.8259 96.9276 28.9961 84.0508C29.2115 67.7442 29.0481 51.4326 29.0481 35.1232C29.0481 33.505 29.0481 31.8867 29.0481 29.415C25.0502 31.5699 21.6049 33.237 18.3525 35.2195C11.6683 39.294 7.16875 39.9217 3.76908 31.43C3.29959 30.2573 2.39735 29.2573 1.34846 28.0886C1.00146 25.2999 1.00146 22.5999 1.00146 19.4499Z" fill="#1A202C"/>
<path d="M85.2319 8.98872C95.1605 0.56309 117.204 0.759184 127.817 9.09945C138.013 17.1126 143.37 27.5944 145.354 40.3646C148.068 57.8269 145.22 73.7922 133.888 87.5797C128.729 93.8573 121.517 97.8896 113.451 98.8506C100.213 100.428 87.9714 98.1111 78.6951 87.1378C71.7706 78.9466 68.3684 69.5587 67.0021 59.0143C65.6084 48.2581 67.1233 38.0703 70.5928 27.9486C73.3038 20.0394 78.7869 14.3432 85.2319 8.98872ZM124.207 47.6949C123.925 40.1139 121.499 33.4825 115.858 28.1438C109.543 22.1672 100.234 22.9368 95.1606 30.0528C86.2831 42.5047 85.8661 55.4783 93.1646 68.7263C95.9973 73.8681 100.166 77.8733 106.378 77.8904C112.875 77.9082 117.043 73.7934 120.129 68.3925C123.651 62.2289 124.733 55.6095 124.207 47.6949Z" fill="#1A202C"/>
<path d="M244.407 49.1354C245.446 36.0432 248.304 24.0113 256.867 14.1605C262.03 8.22013 268.996 4.33878 276.516 3.29835C284.856 2.14443 293.569 2.05791 301.519 6.45645C312.012 12.2617 318.382 21.0188 321.687 32.4544C326.827 50.2349 325.653 67.2387 315.465 82.9155C303.023 102.06 276.292 104.187 260.871 91.0327C251.182 82.7671 246.56 72.2286 245.406 59.8577C245.087 56.4378 244.741 53.0205 244.407 49.1354ZM302.503 45.8427C300.766 41.0391 299.705 35.838 297.154 31.5122C291.356 21.6787 278.391 22.1043 272.143 31.613C264.526 43.2059 264.745 55.1055 270.226 67.1771C272.76 72.76 276.895 77.3948 283.517 77.8968C290.022 78.3898 294.402 74.5702 297.721 69.2897C302.085 62.3452 302.936 54.7021 302.503 45.8427Z" fill="#1A202C"/>
<path d="M156.26 60.8465C154.245 50.726 155.949 41.3178 158.262 31.95C161.975 16.9115 177.715 2.73904 194.144 2.67371C212.708 2.59988 226.38 13.7245 231.819 29.8906C238.065 48.4571 236.832 66.268 226.359 83.1169C214.244 102.609 183.765 104.333 169.35 88.8241C161.904 80.8126 158.146 71.6439 156.26 60.8465ZM177.323 56.0037C179.64 61.249 181.07 67.1765 184.472 71.5879C190.315 79.1658 197.25 80.5052 204.774 73.9889C216.666 63.6891 216.458 37.6196 204.581 27.7307C197.884 22.1552 190.576 23.008 184.27 30.0549C177.778 37.3099 177.246 46.0964 177.323 56.0037Z" fill="#1A202C"/>
<path d="M384.464 2.99992C396.537 3.55377 404.091 10.2033 408.171 20.2405C412.334 30.4833 412.269 41.4889 408.215 51.7894C401.527 68.7817 381.964 75.3424 366.369 64.9679C365.349 64.2896 364.344 63.5901 362.744 62.5C362.744 74.9551 362.744 86.6762 362.744 98.6966C355.654 98.6966 348.913 98.6966 341.868 98.6966C341.868 67.4087 341.868 36.0409 341.868 4.33614C348.598 4.33614 355.482 4.33614 362.487 4.33614C362.573 6.19346 362.654 7.96313 362.797 11.0833C368.937 4.23655 376.03 2.25075 384.464 2.99992ZM381.954 50.1284C388.588 46.7062 390.022 40.8372 389.666 34.0419C389.364 28.2653 384.38 21.7173 379.215 21.0586C371.4 20.0619 366.287 23.2535 363.711 30.1581C359.046 42.6592 367.343 52.0708 381.954 50.1284Z" fill="#1A202C"/>
<path d="M457.939 5.65111C460.148 7.30527 462.074 8.68617 464.571 10.4765C464.696 8.09322 464.787 6.35316 464.895 4.30533C471.623 4.30533 478.377 4.30533 485.471 4.30533C485.471 25.5335 485.471 46.9198 485.471 68.6536C478.799 68.6536 471.915 68.6536 464.898 68.6536C464.806 66.8093 464.717 65.0351 464.624 63.173C460.438 65.172 456.612 67.6247 452.427 68.8838C437.913 73.2494 422.535 63.9151 418.559 49.5774C415.386 38.1335 415.235 26.8966 421.037 16.4759C428.349 3.34556 443.241 -0.528368 457.939 5.65111ZM454.947 50.9656C460.487 49.2174 463.23 44.9344 464.442 39.7178C466.918 29.059 458.638 20.4215 450.024 20.9343C441.376 21.4492 435.671 31.3908 438.111 41.041C439.981 48.4337 449.14 53.5753 454.947 50.9656Z" fill="#1A202C"/>
<path d="M547.933 45.1062C541.084 61.6487 534.233 77.7876 527.447 93.9535C526.014 97.368 524.334 99.5697 519.891 99.1318C514.334 98.5841 508.682 99.0001 502.688 99.0001C505.906 91.5653 508.017 84.085 512.093 77.8934C517.838 69.1666 516.03 61.7216 512.029 53.1474C504.823 37.7018 498.541 21.8256 491.902 6.11706C491.725 5.6986 491.88 5.14053 491.88 4.01087C499.027 4.01087 506.111 3.8821 513.178 4.16555C514.116 4.20314 515.314 6.20877 515.805 7.52159C519.691 17.9099 523.421 28.3558 527.245 38.7675C527.549 39.5967 528.192 40.3021 529.08 41.6973C533.179 30.4282 537.088 19.8037 540.889 9.14136C541.696 6.87982 542.803 5.83813 545.422 5.92901C551.744 6.14842 558.078 6.00018 564.915 6.00018C559.177 19.0959 553.566 31.9041 547.933 45.1062Z" fill="#1A202C"/>
<circle cx="585" cy="37" r="16" fill="#3B68B0"/>
</g>
<defs>
<clipPath id="clip0_133_609">
<rect width="601" height="100" fill="white"/>
</clipPath>
</defs>
</svg>
