<svg width="24" height="24" viewBox="0 0 24 24" fill="none" xmlns="http://www.w3.org/2000/svg">
<path d="M21.75 10.5H15C14.1708 10.5 13.5 9.82922 13.5 9C13.5 8.17078 14.1708 7.5 15 7.5H20.25V2.25C20.25 1.42078 20.9208 0.75 21.75 0.75C22.5792 0.75 23.25 1.42078 23.25 2.25V9C23.25 9.82969 22.5797 10.5 21.75 10.5Z" fill="#A0A3BD"/>
<path opacity="0.4" d="M18.5859 18.2908C19.0823 18.9546 18.9492 19.8949 18.2871 20.3913C16.4576 21.7638 14.2859 22.4941 11.9965 22.4941C6.21094 22.4955 1.5 17.7846 1.5 12.0002C1.5 6.21582 6.21094 1.50488 11.9953 1.50488C15.2367 1.50488 18.2766 3.02691 20.25 5.54176V7.5002H17.9714C16.5666 5.63926 14.3503 4.51051 11.9902 4.51051C7.86094 4.51051 4.5 7.87051 4.5 12.0002C4.5 16.1299 7.86047 19.4908 11.9906 19.4908C13.6256 19.4908 15.1795 18.9738 16.485 17.9936C17.1516 17.4986 18.0891 17.6299 18.5859 18.2908Z" fill="#A0A3BD"/>
</svg>
