<svg width="126" height="124" viewBox="0 0 126 124" fill="none" xmlns="http://www.w3.org/2000/svg">
<path d="M108.224 0H17.0487C7.65318 0 0 7.65342 0 17.0488V96.8511C0 106.247 7.65318 113.9 17.0487 113.9H25.8177V116.542C25.8177 120.653 29.1843 124 33.2945 124H93.9346C98.0644 124 101.411 120.653 101.411 116.542V113.9H108.224C117.638 113.9 125.272 106.247 125.272 96.8511V17.0488C125.272 7.65342 117.638 0 108.224 0ZM121.357 96.8511C121.357 104.093 115.466 109.985 108.224 109.985H101.411V101.392H108.576C111.512 101.392 113.9 99.0042 113.9 96.0682V83.6193C113.9 80.6832 111.512 78.2951 108.576 78.2951H18.6534C15.7173 78.2951 13.3294 80.6832 13.3294 83.6193V96.0682C13.3294 99.0042 15.7173 101.392 18.6534 101.392H25.8177V109.985H17.0487C9.80601 109.985 3.91476 104.093 3.91476 96.8511V17.0488C3.91476 9.80649 9.80601 3.91476 17.0487 3.91476H108.224C115.466 3.91476 121.357 9.80649 121.357 17.0488V96.8511ZM97.4967 116.542C97.4967 118.5 95.892 120.085 93.9346 120.085H33.2945C28.6999 120.085 29.8677 114.421 29.7325 113.9C29.7325 112.811 29.7325 91.5697 29.7325 92.9951H32.4922C32.4312 93.2997 32.453 109.437 32.453 109.241C32.453 110.06 33.1242 110.807 34.019 110.807C36.9124 110.807 39.03 113.141 39.03 115.818C39.03 116.679 39.7344 117.384 40.596 117.384H86.6331C87.4947 117.384 88.1991 116.679 88.1991 115.818C88.1991 113.059 90.4057 110.807 93.2101 110.807C94.0978 110.807 94.7761 110.065 94.7761 109.241C94.7761 108.95 94.7761 92.7775 94.7761 93.3082C94.7761 93.1908 94.7565 93.0929 94.7369 92.9951H97.4967C97.4967 94.1654 97.4967 117.655 97.4967 116.542ZM74.7326 101.294V101.392C74.6637 107.515 69.7188 112.393 63.6148 112.393C57.5012 112.393 52.5653 107.505 52.4965 101.392V101.294C52.4965 97.7336 54.564 94.0946 56.2159 92.9951H71.0133C73.4798 95.175 74.7326 98.3182 74.7326 101.294ZM86.8094 101.275C86.8094 102.742 85.6093 103.996 84.0889 103.996C82.548 103.996 81.3483 102.762 81.3483 101.275C81.3483 99.9274 82.4484 98.5541 84.0889 98.5541C85.6635 98.5541 86.8094 99.8871 86.8094 101.275ZM40.4393 101.275C40.4393 99.9181 41.5518 98.5541 43.1598 98.5541C44.7628 98.5541 45.8808 99.9142 45.8808 101.275C45.8808 102.76 44.6825 103.996 43.1598 103.996C41.638 103.996 40.4393 102.761 40.4393 101.275ZM101.411 92.9951H105.542C106.638 92.9951 107.499 92.1142 107.499 91.0377C107.499 89.9612 106.638 89.0803 105.542 89.0803C81.0715 89.0803 46.1497 89.0803 21.6874 89.0803C20.6108 89.0803 19.7301 89.9612 19.7301 91.0377C19.7301 92.1142 20.6108 92.9951 21.6874 92.9951H25.8177V97.4774H18.6534C17.8902 97.4774 17.2441 96.8511 17.2441 96.0682V83.6193C17.2441 82.8559 17.8902 82.2099 18.6534 82.2099H108.576C109.358 82.2099 109.985 82.8559 109.985 83.6193V96.0682C109.985 96.8511 109.358 97.4774 108.576 97.4774H101.411V92.9951Z" fill="#215786"/>
<path d="M109.554 31.4929H98.9647C96.5964 31.4929 94.6782 33.4111 94.6782 35.7796V39.7922C94.6782 42.1607 96.5964 44.0788 98.9647 44.0788H109.554C111.903 44.0788 113.841 42.1607 113.841 39.7922V35.7796C113.841 33.4111 111.903 31.4929 109.554 31.4929ZM109.554 14.0918H98.9647C96.5964 14.0918 94.6782 16.0296 94.6782 18.3785V22.4107C94.6782 24.7791 96.5964 26.6973 98.9647 26.6973H109.554C111.903 26.6973 113.841 24.7791 113.841 22.4107V18.3785C113.841 16.0296 111.903 14.0918 109.554 14.0918ZM109.554 48.8549H98.9647C96.5964 48.8549 94.6782 50.7926 94.6782 53.1611V57.1737C94.6782 59.5226 96.5964 61.4604 98.9647 61.4604H109.554C111.903 61.4604 113.841 59.5226 113.841 57.1737V53.1611C113.841 50.7926 111.903 48.8549 109.554 48.8549ZM27.5204 31.7865C25.5826 31.7865 24.0171 33.3525 24.0171 35.2706V36.8169H31.0242V35.2706C31.0242 33.3525 29.4582 31.7865 27.5204 31.7865Z" fill="#215786"/>
<path d="M74.6927 11.4502H21.0603C15.7558 11.4502 11.4497 15.7563 11.4497 21.0609V54.5125C11.4497 59.8169 15.7558 64.1232 21.0603 64.1232H74.6927C80.0167 64.1232 84.3229 59.8169 84.3229 54.5125V21.0609C84.3229 15.7563 80.0167 11.4502 74.6927 11.4502ZM34.9382 45.7434C34.9382 46.8199 34.0575 47.7008 32.9809 47.7008C31.8851 47.7008 31.0235 46.8199 31.0235 45.7434V40.7325H24.0164V45.7434C24.0164 46.8199 23.1548 47.7008 22.059 47.7008C20.9824 47.7008 20.1016 46.8199 20.1016 45.7434V35.2715C20.1016 31.1805 23.4291 27.8725 27.5197 27.8725C31.6108 27.8725 34.9382 31.1805 34.9382 35.2715V45.7434ZM51.7719 32.4136H47.1719V45.0975C47.1719 46.1741 46.2911 47.0549 45.2145 47.0549C44.1378 47.0549 43.2571 46.1741 43.2571 45.0975V32.4136H38.6576C37.5613 32.4136 36.7002 31.5524 36.7002 30.4563C36.7002 29.3797 37.5613 28.4989 38.6576 28.4989H51.7719C52.8677 28.4989 53.7293 29.3797 53.7293 30.4563C53.7293 31.5524 52.8677 32.4136 51.7719 32.4136ZM75.6518 45.0975C75.6518 46.1741 74.7711 47.0549 73.6944 47.0549C72.6178 47.0549 71.7371 46.1741 71.7371 45.0975V34.9387L67.9594 38.462C67.1958 39.147 66.0413 39.147 65.2972 38.462L61.5 34.9387V45.0975C61.5 46.1741 60.6389 47.0549 59.5426 47.0549C58.466 47.0549 57.5853 46.1741 57.5853 45.0975V30.4563C57.5853 29.6929 58.055 28.9882 58.7599 28.6751C59.4838 28.3619 60.3058 28.4989 60.8735 29.0274L66.6286 34.3514L72.3636 29.0274C72.9308 28.4989 73.7728 28.3619 74.4772 28.6751C75.1821 28.9882 75.6518 29.6929 75.6518 30.4563V45.0975ZM32.7658 68.723H31.1215C30.0448 68.723 29.1641 69.5842 29.1641 70.6804C29.1641 71.757 30.0448 72.6377 31.1215 72.6377H32.7658C33.8616 72.6377 34.7232 71.757 34.7232 70.6804C34.7232 69.5842 33.8616 68.723 32.7658 68.723ZM43.3943 68.723H41.7499C40.6541 68.723 39.7925 69.5842 39.7925 70.6804C39.7925 71.757 40.6541 72.6377 41.7499 72.6377H43.3943C44.4709 72.6377 45.3516 71.757 45.3516 70.6804C45.3516 69.5842 44.4709 68.723 43.3943 68.723ZM54.0227 68.723H52.3592C51.2825 68.723 50.4018 69.5842 50.4018 70.6804C50.4018 71.757 51.2825 72.6377 52.3592 72.6377H54.0227C55.0993 72.6377 55.9801 71.757 55.9801 70.6804C55.9801 69.5842 55.0993 68.723 54.0227 68.723ZM64.632 68.723H62.9876C61.911 68.723 61.0303 69.5842 61.0303 70.6804C61.0303 71.757 61.911 72.6377 62.9876 72.6377H64.632C65.7278 72.6377 66.5894 71.757 66.5894 70.6804C66.5894 69.5842 65.7278 68.723 64.632 68.723Z" fill="#215786"/>
</svg>
