<svg width="32" height="32" viewBox="0 0 32 32" fill="none" xmlns="http://www.w3.org/2000/svg">
<g clip-path="url(#clip0_3777_23580)">
<path d="M9 16C9 15.1687 9.66875 14.5 10.5 14.5H21.5C22.3313 14.5 23 15.1687 23 16C23 16.8312 22.3313 17.5 21.5 17.5H10.5C9.66875 17.5 9 16.8312 9 16Z" fill="#AD3E3E"/>
<path opacity="0.4" d="M0 16C0 7.1625 7.1625 0 16 0C24.8375 0 32 7.1625 32 16C32 24.8375 24.8375 32 16 32C7.1625 32 0 24.8375 0 16ZM10.5 14.5C9.66875 14.5 9 15.1687 9 16C9 16.8312 9.66875 17.5 10.5 17.5H21.5C22.3312 17.5 23 16.8312 23 16C23 15.1687 22.3312 14.5 21.5 14.5H10.5Z" fill="#AD3E3E"/>
</g>
<defs>
<clipPath id="clip0_3777_23580">
<rect width="32" height="32" fill="white"/>
</clipPath>
</defs>
</svg>
