<svg width="24" height="24" viewBox="0 0 24 24" fill="none" xmlns="http://www.w3.org/2000/svg">
<g clip-path="url(#clip0_3777_23696)">
<path d="M16.4531 9.70312L12 14.1609L7.50469 9.70312C7.06523 9.26367 6.35344 9.26367 5.91375 9.70312C5.47406 10.1426 5.4743 10.8544 5.91375 11.2941L11.1637 16.5441C11.4234 16.7672 11.7094 16.875 12 16.875C12.2906 16.875 12.5756 16.7651 12.7955 16.5454L18.0455 11.2954C18.4849 10.856 18.4849 10.1442 18.0455 9.70448C17.606 9.2648 16.8937 9.26719 16.4531 9.70312ZM12 0C5.37188 0 0 5.37188 0 12C0 18.6281 5.37188 24 12 24C18.6281 24 24 18.6281 24 12C24 5.37188 18.6281 0 12 0ZM12 21.75C6.62344 21.75 2.25 17.3761 2.25 12C2.25 6.62391 6.62344 2.25 12 2.25C17.3766 2.25 21.75 6.62391 21.75 12C21.75 17.3761 17.3766 21.75 12 21.75Z" fill="#1A4E7B"/>
</g>
<defs>
<clipPath id="clip0_3777_23696">
<rect width="24" height="24" fill="white"/>
</clipPath>
</defs>
</svg>
