<svg width="17" height="16" viewBox="0 0 17 16" fill="none" xmlns="http://www.w3.org/2000/svg">
<g clip-path="url(#clip0_3822_10737)">
<path d="M8.25 16C12.6687 16 16.25 12.4187 16.25 8C16.25 3.58125 12.6687 0 8.25 0C3.83125 0 0.25 3.58125 0.25 8C0.25 12.4187 3.83125 16 8.25 16ZM7.5 10.75V8.75H5.5C5.08437 8.75 4.75 8.41562 4.75 8C4.75 7.58437 5.08437 7.25 5.5 7.25H7.5V5.25C7.5 4.83437 7.83437 4.5 8.25 4.5C8.66562 4.5 9 4.83437 9 5.25V7.25H11C11.4156 7.25 11.75 7.58437 11.75 8C11.75 8.41562 11.4156 8.75 11 8.75H9V10.75C9 11.1656 8.66562 11.5 8.25 11.5C7.83437 11.5 7.5 11.1656 7.5 10.75Z" fill="#FCFCFC"/>
</g>
<defs>
<clipPath id="clip0_3822_10737">
<rect width="16" height="16" fill="white" transform="translate(0.25)"/>
</clipPath>
</defs>
</svg>
