<svg width="17" height="16" viewBox="0 0 17 16" fill="none" xmlns="http://www.w3.org/2000/svg">
<path d="M11.75 5.5C11.75 6.32812 12.4219 7 13.25 7C14.0781 7 14.75 6.32812 14.75 5.5C14.75 4.67188 14.0781 4 13.25 4C12.4219 4 11.75 4.67188 11.75 5.5ZM6.75 5.5C6.75 6.32812 7.42188 7 8.25 7C9.07812 7 9.75 6.32812 9.75 5.5C9.75 4.67188 9.07812 4 8.25 4C7.42188 4 6.75 4.67188 6.75 5.5ZM3.25 7C4.07812 7 4.75 6.32812 4.75 5.5C4.75 4.67188 4.07812 4 3.25 4C2.42188 4 1.75 4.67188 1.75 5.5C1.75 6.32812 2.42188 7 3.25 7ZM11.75 10.5C11.75 11.3281 12.4219 12 13.25 12C14.0781 12 14.75 11.3281 14.75 10.5C14.75 9.67188 14.0781 9 13.25 9C12.4219 9 11.75 9.67188 11.75 10.5ZM8.25 12C9.07812 12 9.75 11.3281 9.75 10.5C9.75 9.67188 9.07812 9 8.25 9C7.42188 9 6.75 9.67188 6.75 10.5C6.75 11.3281 7.42188 12 8.25 12ZM1.75 10.5C1.75 11.3281 2.42188 12 3.25 12C4.07812 12 4.75 11.3281 4.75 10.5C4.75 9.67188 4.07812 9 3.25 9C2.42188 9 1.75 9.67188 1.75 10.5Z" fill="#FCFCFC"/>
</svg>
