<svg width="52" height="33" viewBox="0 0 52 33" fill="none" xmlns="http://www.w3.org/2000/svg">
<rect x="21" y="20" width="14" height="12" transform="rotate(-90 21 20)" fill="#215786"/>
<path d="M32 0H4C1.79063 0 0 1.79063 0 4V24C0 26.2094 1.79063 28 4 28H32C34.2094 28 36 26.2094 36 24V4C36 1.79063 34.2062 0 32 0ZM11 6C13.2094 6 15 7.79063 15 10C15 12.2094 13.2094 14 11 14C8.79062 14 7 12.2094 7 10C7 7.79063 8.79375 6 11 6ZM17 22H5C4.4475 22 4 21.55 4 21C4 18.2375 6.23875 16 9 16H13C15.7612 16 18 18.2388 18 21C18 21.55 17.55 22 17 22ZM31 18H23C22.45 18 22 17.55 22 17C22 16.45 22.45 16 23 16H31C31.55 16 32 16.45 32 17C32 17.55 31.55 18 31 18ZM31 14H23C22.45 14 22 13.55 22 13C22 12.45 22.45 12 23 12H31C31.55 12 32 12.45 32 13C32 13.55 31.55 14 31 14ZM31 10H23C22.45 10 22 9.55 22 9C22 8.45 22.45 8 23 8H31C31.55 8 32 8.45 32 9C32 9.55 31.55 10 31 10Z" fill="#48B0FF"/>
<path d="M11 14C13.2094 14 15 12.2094 15 10C15 7.79063 13.2094 6 11 6C8.79063 6 7 7.79063 7 10C7 12.2094 8.79375 14 11 14ZM13 16H9C6.23875 16 4 18.2375 4 21C4 21.55 4.4475 22 5 22H17C17.5522 22 18 21.5522 18 21C18 18.2375 15.7625 16 13 16Z" fill="#215786"/>
<g filter="url(#filter0_d_4324_29829)">
<path d="M25 13.5C25 7.14805 30.148 2 36.5 2C42.852 2 48 7.14805 48 13.5C48 19.852 42.852 25 36.5 25C30.148 25 25 19.852 25 13.5Z" fill="#48AD3E"/>
<path d="M41.7018 9.7354C42.1915 10.225 42.1915 11.0247 41.7018 11.5143L35.9518 17.2643C35.4622 17.754 34.6625 17.754 34.1729 17.2643L31.2979 14.3893C30.8083 13.8997 30.8083 13.1 31.2979 12.6104C31.7875 12.1208 32.5872 12.1208 33.0768 12.6104L35.0624 14.5959L39.9229 9.7354C40.4125 9.24575 41.2122 9.24575 41.7018 9.7354Z" fill="#FCFCFC"/>
</g>
<defs>
<filter id="filter0_d_4324_29829" x="21" y="2" width="31" height="31" filterUnits="userSpaceOnUse" color-interpolation-filters="sRGB">
<feFlood flood-opacity="0" result="BackgroundImageFix"/>
<feColorMatrix in="SourceAlpha" type="matrix" values="0 0 0 0 0 0 0 0 0 0 0 0 0 0 0 0 0 0 127 0" result="hardAlpha"/>
<feOffset dy="4"/>
<feGaussianBlur stdDeviation="2"/>
<feComposite in2="hardAlpha" operator="out"/>
<feColorMatrix type="matrix" values="0 0 0 0 0 0 0 0 0 0 0 0 0 0 0 0 0 0 0.25 0"/>
<feBlend mode="normal" in2="BackgroundImageFix" result="effect1_dropShadow_4324_29829"/>
<feBlend mode="normal" in="SourceGraphic" in2="effect1_dropShadow_4324_29829" result="shape"/>
</filter>
</defs>
</svg>
