<svg width="32" height="32" viewBox="0 0 32 32" fill="none" xmlns="http://www.w3.org/2000/svg">
<path opacity="0.3" d="M15.9998 29.3337C23.3636 29.3337 29.3332 23.3641 29.3332 16.0003C29.3332 8.63653 23.3636 2.66699 15.9998 2.66699C8.63604 2.66699 2.6665 8.63653 2.6665 16.0003C2.6665 23.3641 8.63604 29.3337 15.9998 29.3337Z" fill="#A0A3BD"/>
<path d="M17.3332 14.6663C17.3332 13.93 16.7362 13.333 15.9998 13.333C15.2635 13.333 14.6665 13.93 14.6665 14.6663V21.333C14.6665 22.0694 15.2635 22.6663 15.9998 22.6663C16.7362 22.6663 17.3332 22.0694 17.3332 21.333V14.6663Z" fill="#A0A3BD"/>
<path d="M17.3332 10.6663C17.3332 9.92996 16.7362 9.33301 15.9998 9.33301C15.2635 9.33301 14.6665 9.92996 14.6665 10.6663C14.6665 11.4027 15.2635 11.9997 15.9998 11.9997C16.7362 11.9997 17.3332 11.4027 17.3332 10.6663Z" fill="#A0A3BD"/>
</svg>
