<svg width="834" height="141" viewBox="0 0 834 141" fill="none" xmlns="http://www.w3.org/2000/svg">
<path d="M510.029 49.1625C510.029 22.072 531.823 0.277832 558.728 0.277832C585.633 0.277832 607.613 22.072 607.613 49.1625C607.613 76.2529 585.633 98.047 558.728 98.047C549.063 98.047 541.489 95.5843 534.856 90.8441V134.724H510.029V49.1625ZM558.914 73.9755C572.936 73.9755 582.972 63.1711 582.972 49.1492C582.972 35.1273 572.936 24.3229 558.914 24.3229C544.892 24.3229 534.472 35.1273 534.472 49.1492C534.472 63.1711 544.892 73.9755 558.914 73.9755Z" fill="#0076FD"/>
<path d="M720.584 97.6233H695.758V90.8441C689.124 95.5843 681.55 98.047 671.885 98.047C644.98 98.047 623 76.2529 623 49.1625C623 22.072 644.98 0.277832 671.885 0.277832C698.79 0.277832 720.584 22.072 720.584 49.1625V97.6233ZM696.142 49.1625C696.142 35.1406 685.721 24.3362 671.699 24.3362C657.677 24.3362 647.641 35.1406 647.641 49.1625C647.641 63.1843 657.677 73.9887 671.699 73.9887C685.721 73.9887 696.142 63.1843 696.142 49.1625Z" fill="#0076FD"/>
<path d="M833.581 39.987V1.7876H809.125V39.987H808.94V50.8179C807.536 63.3038 797.645 72.559 784.669 72.559C770.648 72.559 760.598 61.7546 760.598 47.7328V1.7876H735.957V47.7328C735.957 74.8364 757.95 96.6306 784.855 96.6306C794.415 96.6306 801.935 94.2208 808.516 89.5734L808.728 89.3218C807.245 101.662 797.738 110.758 784.868 110.758H784.577C774.832 110.758 767.02 105.542 763.153 97.6502H737.294C742.551 119.034 761.843 134.804 784.722 134.83C811.614 134.804 833.581 113.023 833.581 85.9322V39.987Z" fill="#0076FD"/>
<path d="M48.1829 1.50977V133.281H23.7141V34.0818C17.3189 38.7823 7.52071 40.6757 0 41.2318V17.5177C8.09006 16.763 22.4033 11.6786 23.7141 1.52298H48.1829V1.50977Z" fill="#0076FD"/>
<path d="M63.5684 67.3951C63.5684 29.5532 93.4923 0 131.334 0C169.176 0 199.1 29.5532 199.1 67.3951C199.1 105.237 169.176 134.79 131.334 134.79C93.4923 134.79 63.5684 105.237 63.5684 67.3951ZM174.618 67.3951C174.618 42.9263 155.79 23.9127 131.321 23.9127C106.852 23.9127 88.0239 42.9263 88.0239 67.3951C88.0239 91.8639 106.852 110.877 131.321 110.877C155.79 110.877 174.618 91.8639 174.618 67.3951Z" fill="#0076FD"/>
<path d="M211.348 67.3951C211.348 29.5532 241.272 0 279.113 0C316.955 0 346.879 29.5532 346.879 67.3951C346.879 105.237 316.955 134.79 279.113 134.79C241.272 134.79 211.348 105.237 211.348 67.3951ZM322.41 67.3951C322.41 42.9263 303.582 23.9127 279.113 23.9127C254.645 23.9127 235.816 42.9263 235.816 67.3951C235.816 91.8639 254.645 110.877 279.113 110.877C303.582 110.877 322.41 91.8639 322.41 67.3951Z" fill="#0076FD"/>
<path d="M359.127 67.3951C359.127 29.5532 389.051 0 426.893 0C464.735 0 494.659 29.5532 494.659 67.3951C494.659 105.237 464.735 134.79 426.893 134.79C389.051 134.79 359.127 105.237 359.127 67.3951ZM470.19 67.3951C470.19 42.9263 451.362 23.9127 426.893 23.9127C402.424 23.9127 383.596 42.9263 383.596 67.3951C383.596 91.8639 402.424 110.877 426.893 110.877C451.362 110.877 470.19 91.8639 470.19 67.3951Z" fill="#0076FD"/>
</svg>
