<svg width="56" height="62" viewBox="0 0 56 62" fill="none" xmlns="http://www.w3.org/2000/svg">
<rect x="1.125" y="1" width="38" height="60" rx="5" fill="#EFF0F6"/>
<path d="M14 1.4375H13.5V1.9375V4.84375C13.5 5.66916 14.1894 6.3125 15 6.3125H25C25.8118 6.3125 26.5 5.66828 26.5 4.84375V1.9375V1.4375H26H14ZM12.5 1.9375V1.4375H12H6C3.53394 1.4375 1.5 3.38542 1.5 5.8125V56.1875C1.5 58.6146 3.53394 60.5625 6 60.5625H34C36.4661 60.5625 38.5 58.6146 38.5 56.1875V5.8125C38.5 3.38542 36.4661 1.4375 34 1.4375H28H27.5V1.9375V4.84375C27.5 6.15443 26.3894 7.25 25 7.25H15C13.6106 7.25 12.5 6.15443 12.5 4.84375V1.9375ZM14 53.7812H26C26.2898 53.7812 26.5 54.0064 26.5 54.25C26.5 54.4939 26.2904 54.7188 26 54.7188H14C13.7096 54.7188 13.5 54.4939 13.5 54.25C13.5 54.0061 13.7096 53.7812 14 53.7812ZM6 0.5H34C37.0514 0.5 39.5 2.8945 39.5 5.8125V56.1875C39.5 59.1055 37.0514 61.5 34 61.5H6C2.94856 61.5 0.5 59.1055 0.5 56.1875V5.8125C0.5 2.8945 2.94856 0.5 6 0.5Z" fill="#4E4B66" stroke="#D9DBE9"/>
<rect x="5" y="11" width="1" height="4" fill="#14142B"/>
<rect x="9" y="11" width="1" height="4" transform="rotate(90 9 11)" fill="#14142B"/>
<rect x="35" y="11" width="1" height="4" transform="rotate(90 35 11)" fill="#14142B"/>
<rect x="35" y="15" width="1" height="4" transform="rotate(-180 35 15)" fill="#14142B"/>
<rect x="5" y="51" width="1" height="4" transform="rotate(-90 5 51)" fill="#14142B"/>
<rect x="5" y="47" width="1" height="4" fill="#14142B"/>
<rect x="35" y="51" width="1" height="4" transform="rotate(180 35 51)" fill="#14142B"/>
<rect x="31" y="51" width="1" height="4" transform="rotate(-90 31 51)" fill="#14142B"/>
<g opacity="0.5">
<rect x="16.5" y="11" width="1" height="1" transform="rotate(90 16.5 11)" fill="#14142B"/>
<rect x="20.5" y="11" width="1" height="1" transform="rotate(90 20.5 11)" fill="#14142B"/>
<rect x="24.5" y="11" width="1" height="1" transform="rotate(90 24.5 11)" fill="#14142B"/>
</g>
<g opacity="0.5">
<rect x="16.5" y="50" width="1" height="1" transform="rotate(90 16.5 50)" fill="#14142B"/>
<rect x="20.5" y="50" width="1" height="1" transform="rotate(90 20.5 50)" fill="#14142B"/>
<rect x="24.5" y="50" width="1" height="1" transform="rotate(90 24.5 50)" fill="#14142B"/>
</g>
<g opacity="0.5">
<rect x="5" y="40" width="1" height="1" fill="#14142B"/>
<rect x="5" y="34" width="1" height="1" fill="#14142B"/>
<rect x="5" y="30" width="1" height="1" fill="#14142B"/>
<rect x="5" y="26" width="1" height="1" fill="#14142B"/>
<rect x="5" y="20" width="1" height="1" fill="#14142B"/>
</g>
<g filter="url(#filter0_d_4324_29795)">
<rect x="32" y="34" width="14" height="12" fill="#215786"/>
<path d="M52 45L52 17C52 14.7906 50.2094 13 48 13L28 13C25.7906 13 24 14.7906 24 17L24 45C24 47.2094 25.7906 49 28 49L48 49C50.2094 49 52 47.2062 52 45ZM46 24C46 26.2094 44.2094 28 42 28C39.7906 28 38 26.2094 38 24C38 21.7906 39.7906 20 42 20C44.2094 20 46 21.7937 46 24ZM30 30L30 18C30 17.4475 30.45 17 31 17C33.7625 17 36 19.2387 36 22L36 26C36 28.7612 33.7612 31 31 31C30.45 31 30 30.55 30 30ZM34 44L34 36C34 35.45 34.45 35 35 35C35.55 35 36 35.45 36 36L36 44C36 44.55 35.55 45 35 45C34.45 45 34 44.55 34 44ZM38 44L38 36C38 35.45 38.45 35 39 35C39.55 35 40 35.45 40 36L40 44C40 44.55 39.55 45 39 45C38.45 45 38 44.55 38 44ZM42 44L42 36C42 35.45 42.45 35 43 35C43.55 35 44 35.45 44 36L44 44C44 44.55 43.55 45 43 45C42.45 45 42 44.55 42 44Z" fill="#48B0FF"/>
<path d="M38 24C38 26.2094 39.7906 28 42 28C44.2094 28 46 26.2094 46 24C46 21.7906 44.2094 20 42 20C39.7906 20 38 21.7937 38 24ZM36 26L36 22C36 19.2387 33.7625 17 31 17C30.45 17 30 17.4475 30 18L30 30C30 30.5522 30.4477 31 31 31C33.7625 31 36 28.7625 36 26Z" fill="#215786"/>
</g>
<defs>
<filter id="filter0_d_4324_29795" x="20" y="13" width="36" height="44" filterUnits="userSpaceOnUse" color-interpolation-filters="sRGB">
<feFlood flood-opacity="0" result="BackgroundImageFix"/>
<feColorMatrix in="SourceAlpha" type="matrix" values="0 0 0 0 0 0 0 0 0 0 0 0 0 0 0 0 0 0 127 0" result="hardAlpha"/>
<feOffset dy="4"/>
<feGaussianBlur stdDeviation="2"/>
<feComposite in2="hardAlpha" operator="out"/>
<feColorMatrix type="matrix" values="0 0 0 0 0 0 0 0 0 0 0 0 0 0 0 0 0 0 0.15 0"/>
<feBlend mode="normal" in2="BackgroundImageFix" result="effect1_dropShadow_4324_29795"/>
<feBlend mode="normal" in="SourceGraphic" in2="effect1_dropShadow_4324_29795" result="shape"/>
</filter>
</defs>
</svg>
