<svg width="24" height="24" viewBox="0 0 24 24" fill="none" xmlns="http://www.w3.org/2000/svg">
<path d="M13.5 13.5H18V15H21V13.5H22.5V19.5H18V18H16.5V22.5H13.5V13.5ZM19.5 22.5H18V21H19.5V22.5ZM22.5 22.5H21V21H22.5V22.5Z" fill="#FCFCFC"/>
<path opacity="0.4" d="M8.25 1.5C9.49219 1.5 10.5 2.50734 10.5 3.75V8.25C10.5 9.49219 9.49219 10.5 8.25 10.5H3.75C2.50734 10.5 1.5 9.49219 1.5 8.25V3.75C1.5 2.50734 2.50734 1.5 3.75 1.5H8.25ZM7.5 4.5H4.5V7.5H7.5V4.5ZM8.25 13.5C9.49219 13.5 10.5 14.5078 10.5 15.75V20.25C10.5 21.4922 9.49219 22.5 8.25 22.5H3.75C2.50734 22.5 1.5 21.4922 1.5 20.25V15.75C1.5 14.5078 2.50734 13.5 3.75 13.5H8.25ZM7.5 16.5H4.5V19.5H7.5V16.5ZM13.5 3.75C13.5 2.50734 14.5078 1.5 15.75 1.5H20.25C21.4922 1.5 22.5 2.50734 22.5 3.75V8.25C22.5 9.49219 21.4922 10.5 20.25 10.5H15.75C14.5078 10.5 13.5 9.49219 13.5 8.25V3.75ZM16.5 7.5H19.5V4.5H16.5V7.5Z" fill="#FCFCFC"/>
</svg>
