<svg width="32" height="32" viewBox="0 0 32 32" fill="none" xmlns="http://www.w3.org/2000/svg">
<g clip-path="url(#clip0_3777_23555)">
<path d="M9.12891 10C9.12891 9.45 9.57641 9 10.1289 9H22.1289C22.6789 9 23.1289 9.45 23.1289 10C23.1289 10.55 22.6789 11 22.1289 11H10.1289C9.57641 11 9.12891 10.55 9.12891 10ZM9.12891 22C9.12891 21.45 9.57641 21 10.1289 21H22.1289C22.6789 21 23.1289 21.45 23.1289 22C23.1289 22.55 22.6789 23 22.1289 23H10.1289C9.57641 23 9.12891 22.55 9.12891 22ZM22.1289 15C22.6789 15 23.1289 15.45 23.1289 16C23.1289 16.55 22.6789 17 22.1289 17H10.1289C9.57641 17 9.12891 16.55 9.12891 16C9.12891 15.45 9.57641 15 10.1289 15H22.1289Z" fill="#215786"/>
<path opacity="0.4" d="M5.00203 0.13725C5.53453 -0.1075 6.16016 -0.0200875 6.60516 0.361125L9.12891 2.52437L11.6539 0.361125C12.2164 -0.120375 13.0414 -0.120375 13.6039 0.361125L16.1289 2.52437L18.6539 0.361125C19.2164 -0.120375 20.0414 -0.120375 20.6039 0.361125L23.1289 2.52437L25.6539 0.361125C26.0977 -0.0200875 26.7227 -0.1075 27.2539 0.13725C27.7852 0.382062 28.1289 0.914375 28.1289 1.5V30.5C28.1289 31.0875 27.7852 31.6187 27.2539 31.8625C26.7227 32.1063 26.0977 32.0187 25.6539 31.6375L23.1289 29.475L20.6039 31.6375C20.0414 32.1188 19.2164 32.1188 18.6539 31.6375L16.1289 29.475L13.6039 31.6375C13.0414 32.1188 12.2164 32.1188 11.6539 31.6375L9.12891 29.475L6.60516 31.6375C6.16016 32.0187 5.53453 32.1063 5.00203 31.8625C4.46991 31.6187 4.12891 31.0875 4.12891 30.5V1.5C4.12891 0.914375 4.46991 0.382 5.00203 0.13725ZM10.1289 9C9.57641 9 9.12891 9.45 9.12891 10C9.12891 10.55 9.57641 11 10.1289 11H22.1289C22.6789 11 23.1289 10.55 23.1289 10C23.1289 9.45 22.6789 9 22.1289 9H10.1289ZM10.1289 23H22.1289C22.6789 23 23.1289 22.55 23.1289 22C23.1289 21.45 22.6789 21 22.1289 21H10.1289C9.57641 21 9.12891 21.45 9.12891 22C9.12891 22.55 9.57641 23 10.1289 23ZM10.1289 15C9.57641 15 9.12891 15.45 9.12891 16C9.12891 16.55 9.57641 17 10.1289 17H22.1289C22.6789 17 23.1289 16.55 23.1289 16C23.1289 15.45 22.6789 15 22.1289 15H10.1289Z" fill="#215786"/>
</g>
<defs>
<clipPath id="clip0_3777_23555">
<rect width="32" height="32" fill="white"/>
</clipPath>
</defs>
</svg>
