<svg width="32" height="32" viewBox="0 0 32 32" fill="none" xmlns="http://www.w3.org/2000/svg">
<path d="M3.03125 14H2.5C1.66875 14 1 13.3313 1 12.5V4.50002C1 3.89377 1.3625 3.34377 1.925 3.11252C2.4875 2.88127 3.13125 3.00627 3.5625 3.43752L6.1625 6.03752C11.6375 0.63127 20.4562 0.650021 25.9 6.10002C31.3687 11.5688 31.3687 20.4313 25.9 25.9C20.4312 31.3688 11.5687 31.3688 6.1 25.9C5.31875 25.1188 5.31875 23.85 6.1 23.0688C6.88125 22.2875 8.15 22.2875 8.93125 23.0688C12.8375 26.975 19.1688 26.975 23.075 23.0688C26.9813 19.1625 26.9813 12.8313 23.075 8.92502C19.1875 5.03752 12.9062 5.01877 8.99375 8.86252L11.5625 11.4375C11.9938 11.8688 12.1187 12.5125 11.8875 13.075C11.6562 13.6375 11.1062 14 10.5 14H3.03125Z" fill="#215786"/>
</svg>
