<svg width="64" height="64" viewBox="0 0 64 64" fill="none" xmlns="http://www.w3.org/2000/svg">
<path opacity="0.3" d="M54.667 37.333C56.8761 37.333 58.667 35.5421 58.667 33.333C58.667 31.1239 56.8761 29.333 54.667 29.333C52.4579 29.333 50.667 31.1239 50.667 33.333C50.667 35.5421 52.4579 37.333 54.667 37.333Z" fill="#48B0FF"/>
<path opacity="0.3" d="M50.191 2.79617L8.97815 13.8391C7.55557 14.2203 6.71135 15.6825 7.09253 17.1051L10.5434 29.9841C10.9246 31.4067 12.3869 32.2509 13.8094 31.8697L55.0223 20.8268C56.4449 20.4456 57.2891 18.9834 56.9079 17.5608L53.457 4.68178C53.0758 3.25921 51.6136 2.41499 50.191 2.79617Z" fill="#48B0FF"/>
<path fill-rule="evenodd" clip-rule="evenodd" d="M58.6663 24.8985C57.454 24.3226 56.0978 24.0003 54.6663 24.0003C49.5117 24.0003 45.333 28.179 45.333 33.3337C45.333 38.4883 49.5117 42.667 54.6663 42.667C56.0978 42.667 57.454 42.3447 58.6663 41.7688V48.0003C58.6663 50.9458 56.2785 53.3337 53.333 53.3337H10.6663C7.72082 53.3337 5.33301 50.9458 5.33301 48.0003V16.0003C5.33301 13.0548 7.72082 10.667 10.6663 10.667H53.333C56.2785 10.667 58.6663 13.0548 58.6663 16.0003V24.8985Z" fill="#48B0FF"/>
</svg>
