<svg width="24" height="24" viewBox="0 0 24 24" fill="none" xmlns="http://www.w3.org/2000/svg">
<path d="M13.9031 3.31114L22.1531 11.1861C22.3758 11.3985 22.5018 11.6929 22.5018 12.0008C22.5018 12.3088 22.3758 12.6027 22.1531 12.8155L13.9031 20.6905C13.4534 21.1182 12.7416 21.1021 12.3122 20.6524C11.883 20.2071 11.8991 19.4923 12.3503 19.0615L18.5706 13.1271H2.62547C2.00437 13.1271 1.5 12.6227 1.5 12.0016C1.5 11.3806 2.00437 10.8771 2.62547 10.8771H18.5677L12.3473 4.94274C11.8969 4.51114 11.8828 3.79629 12.3094 3.34957C12.7406 2.89957 13.4109 2.88364 13.9031 3.31114Z" fill="#FCFCFC"/>
</svg>
