<svg width="24" height="24" viewBox="0 0 24 24" fill="none" xmlns="http://www.w3.org/2000/svg">
<path d="M2.26916 6.46844L6.35197 1.96422C6.9201 1.34266 7.99541 1.34266 8.564 1.96422L12.6468 6.46844C13.2065 7.08016 13.1653 8.02984 12.5545 8.59047C11.9442 9.15063 10.995 9.10797 10.4348 8.49798L8.99994 6.83875V20.995C8.99994 21.8294 8.32963 22.4997 7.49994 22.4997C6.67025 22.4997 5.99994 21.828 5.99994 20.9983V6.83875L4.48119 8.49813C3.94541 9.08406 2.99854 9.17781 2.3615 8.59188C1.75063 8.03406 1.70961 7.0825 2.26916 6.46844Z" fill="#A0A3BD"/>
<path opacity="0.4" d="M11.3623 15.4078C10.7515 15.968 10.7107 16.9181 11.27 17.5298L15.3528 22.0341C15.921 22.6556 16.9963 22.6556 17.5649 22.0341L21.6477 17.5298C22.2074 16.9181 22.1661 15.9684 21.5554 15.4078C20.9183 14.8238 19.971 14.9166 19.4357 15.5001L17.9998 17.1609V3.00141C17.9998 2.17172 17.3295 1.5 16.4998 1.5C15.6701 1.5 14.9998 2.17172 14.9998 3.00141V17.1577L13.4811 15.4983C12.9186 14.8922 11.9717 14.85 11.3623 15.4078Z" fill="#A0A3BD"/>
</svg>
