<svg width="32" height="32" viewBox="0 0 32 32" fill="none" xmlns="http://www.w3.org/2000/svg">
<path opacity="0.3" d="M16.0002 5.33301H5.3335V26.6663H16.0002V5.33301Z" fill="#215786"/>
<path d="M8.00016 23.9997H12.0002C12.8891 24.1522 13.3335 24.5966 13.3335 25.333C13.3335 26.0694 12.8891 26.5138 12.0002 26.6663H5.3335V19.9997C5.3335 19.1108 5.77794 18.6663 6.66683 18.6663C7.55572 18.6663 8.00016 19.1108 8.00016 19.9997V23.9997ZM24.0002 23.9997V19.9997C24.1527 19.1108 24.5971 18.6663 25.3335 18.6663C26.0699 18.6663 26.5143 19.1108 26.6668 19.9997V26.6663H20.0002C19.1113 26.6663 18.6668 26.2219 18.6668 25.333C18.6668 24.4441 19.1113 23.9997 20.0002 23.9997H24.0002ZM24.0002 7.99967H20.0002C19.1113 7.84717 18.6668 7.40272 18.6668 6.66634C18.6668 5.92996 19.1113 5.48552 20.0002 5.33301H26.6668V11.9997C26.6668 12.8886 26.2224 13.333 25.3335 13.333C24.4446 13.333 24.0002 12.8886 24.0002 11.9997V7.99967ZM8.00016 7.99967V11.9997C7.84765 12.8886 7.40321 13.333 6.66683 13.333C5.93045 13.333 5.48601 12.8886 5.3335 11.9997V5.33301H12.0002C12.8891 5.33301 13.3335 5.77745 13.3335 6.66634C13.3335 7.55523 12.8891 7.99967 12.0002 7.99967H8.00016Z" fill="#215786"/>
</svg>
