<svg width="32" height="32" viewBox="0 0 32 32" fill="none" xmlns="http://www.w3.org/2000/svg">
<path opacity="0.3" d="M26.6667 6.66699H5.33341C3.86066 6.66699 2.66675 7.8609 2.66675 9.33366V22.667C2.66675 24.1398 3.86066 25.3337 5.33341 25.3337H26.6667C28.1395 25.3337 29.3334 24.1398 29.3334 22.667V9.33366C29.3334 7.8609 28.1395 6.66699 26.6667 6.66699Z" fill="#215786"/>
<path d="M29.3334 10.667H2.66675V14.667H29.3334V10.667Z" fill="#215786"/>
<path opacity="0.3" d="M25.3333 18.667H22.6666C21.9302 18.667 21.3333 19.2639 21.3333 20.0003C21.3333 20.7367 21.9302 21.3337 22.6666 21.3337H25.3333C26.0696 21.3337 26.6666 20.7367 26.6666 20.0003C26.6666 19.2639 26.0696 18.667 25.3333 18.667Z" fill="#215786"/>
</svg>
