<svg width="209" height="172" viewBox="0 0 209 172" fill="none" xmlns="http://www.w3.org/2000/svg">
<rect x="161.376" y="34.291" width="19.6214" height="19.6214" transform="rotate(-9.99517 161.376 34.291)" fill="#D1EAFF"/>
<path d="M180.7 30.8857L185.641 34.3462L189.046 53.6698L184.105 50.2093L180.7 30.8857Z" fill="#A3D5FF"/>
<path d="M164.782 53.6152L184.105 50.2096L189.046 53.6701L169.723 57.0757L164.782 53.6152Z" fill="#279AF1"/>
<rect x="156.435" y="30.8311" width="19.6214" height="19.6214" transform="rotate(-9.99517 156.435 30.8311)" fill="#D1EAFF"/>
<path d="M175.758 27.4258L180.699 30.8862L184.105 50.2098L179.164 46.7494L175.758 27.4258Z" fill="#A3D5FF"/>
<path d="M159.84 50.1553L179.164 46.7497L184.105 50.2101L164.781 53.6157L159.84 50.1553Z" fill="#279AF1"/>
<rect x="169.723" y="57.0752" width="19.6214" height="19.6214" transform="rotate(-9.99517 169.723 57.0752)" fill="#D1EAFF"/>
<path d="M189.047 53.6699L193.988 57.1304L197.394 76.454L192.452 72.9935L189.047 53.6699Z" fill="#A3D5FF"/>
<path d="M173.129 76.3994L192.453 72.9938L197.394 76.4543L178.07 79.8599L173.129 76.3994Z" fill="#279AF1"/>
<rect x="173.128" y="76.3994" width="19.6214" height="19.6214" transform="rotate(-9.99517 173.128 76.3994)" fill="#D1EAFF"/>
<path d="M192.453 72.9941L197.394 76.4546L200.799 95.7782L195.858 92.3177L192.453 72.9941Z" fill="#A3D5FF"/>
<path d="M176.534 95.7236L195.858 92.318L200.799 95.7785L181.475 99.1841L176.534 95.7236Z" fill="#279AF1"/>
<rect x="145.458" y="57.0205" width="19.6214" height="19.6214" transform="rotate(-9.99517 145.458 57.0205)" fill="#D1EAFF"/>
<path d="M164.782 53.6152L169.723 57.0757L173.129 76.3993L168.188 72.9388L164.782 53.6152Z" fill="#A3D5FF"/>
<path d="M148.864 76.3447L168.187 72.9391L173.128 76.3996L153.805 79.8052L148.864 76.3447Z" fill="#279AF1"/>
<rect x="96.9282" y="56.9111" width="19.6214" height="19.6214" transform="rotate(-9.99517 96.9282 56.9111)" fill="#D1EAFF"/>
<path d="M116.252 53.5059L121.194 56.9663L124.599 76.2899L119.658 72.8295L116.252 53.5059Z" fill="#A3D5FF"/>
<path d="M100.334 76.2354L119.658 72.8298L124.599 76.2902L105.275 79.6958L100.334 76.2354Z" fill="#279AF1"/>
<rect x="81.0107" y="79.6387" width="19.6214" height="19.6214" transform="rotate(-9.99517 81.0107 79.6387)" fill="#D1EAFF"/>
<path d="M100.335 76.2334L105.276 79.6938L108.682 99.0174L103.741 95.557L100.335 76.2334Z" fill="#A3D5FF"/>
<path d="M84.4165 98.9619L103.74 95.5563L108.681 99.0168L89.3576 102.422L84.4165 98.9619Z" fill="#279AF1"/>
<rect x="10.8462" y="30.502" width="19.6214" height="19.6214" transform="rotate(-9.99517 10.8462 30.502)" fill="#D1EAFF"/>
<path d="M30.1699 27.0967L35.1111 30.5571L38.5166 49.8807L33.5755 46.4203L30.1699 27.0967Z" fill="#A3D5FF"/>
<path d="M14.252 49.8262L33.5756 46.4206L38.5167 49.881L19.1931 53.2866L14.252 49.8262Z" fill="#279AF1"/>
<rect x="83.6406" y="30.665" width="19.6214" height="19.6214" transform="rotate(-9.99517 83.6406 30.665)" fill="#D1EAFF"/>
<path d="M102.965 27.2598L107.906 30.7202L111.312 50.0438L106.37 46.5834L102.965 27.2598Z" fill="#A3D5FF"/>
<path d="M87.0464 49.9883L106.37 46.5827L111.311 50.0431L91.9875 53.4487L87.0464 49.9883Z" fill="#279AF1"/>
<rect x="27.54" y="76.0693" width="19.6214" height="19.6214" transform="rotate(-9.99517 27.54 76.0693)" fill="#D1EAFF"/>
<path d="M46.8643 72.6641L51.8054 76.1245L55.211 95.4481L50.2699 91.9877L46.8643 72.6641Z" fill="#A3D5FF"/>
<path d="M30.9458 95.3936L50.2694 91.988L55.2105 95.4484L35.8869 98.854L30.9458 95.3936Z" fill="#279AF1"/>
<rect x="105.275" y="79.6943" width="19.6214" height="19.6214" transform="rotate(-9.99517 105.275 79.6943)" fill="#D1EAFF"/>
<path d="M124.599 76.2891L129.54 79.7495L132.945 99.0731L128.004 95.6127L124.599 76.2891Z" fill="#A3D5FF"/>
<path d="M108.681 99.0186L128.004 95.613L132.945 99.0734L113.622 102.479L108.681 99.0186Z" fill="#279AF1"/>
<rect x="35.1113" y="30.5576" width="19.6214" height="19.6214" transform="rotate(-9.99517 35.1113 30.5576)" fill="#D1EAFF"/>
<path d="M54.4351 27.1523L59.3762 30.6128L62.7818 49.9364L57.8407 46.4759L54.4351 27.1523Z" fill="#A3D5FF"/>
<path d="M38.5171 49.8818L57.8407 46.4762L62.7818 49.9367L43.4582 53.3423L38.5171 49.8818Z" fill="#279AF1"/>
<rect x="107.905" y="30.7217" width="19.6214" height="19.6214" transform="rotate(-9.99517 107.905 30.7217)" fill="#D1EAFF"/>
<path d="M127.229 27.3164L132.17 30.7768L135.576 50.1004L130.635 46.64L127.229 27.3164Z" fill="#A3D5FF"/>
<path d="M111.311 50.0459L130.635 46.6403L135.576 50.1007L116.252 53.5063L111.311 50.0459Z" fill="#279AF1"/>
<rect x="51.8042" y="76.125" width="19.6214" height="19.6214" transform="rotate(-9.99517 51.8042 76.125)" fill="#D1EAFF"/>
<path d="M71.1284 72.7197L76.0695 76.1802L79.4751 95.5038L74.534 92.0433L71.1284 72.7197Z" fill="#A3D5FF"/>
<path d="M55.21 95.4492L74.5336 92.0436L79.4747 95.5041L60.1511 98.9097L55.21 95.4492Z" fill="#279AF1"/>
<rect x="124.598" y="76.29" width="19.6214" height="19.6214" transform="rotate(-9.99517 124.598 76.29)" fill="#D1EAFF"/>
<path d="M143.922 72.8848L148.863 76.3452L152.269 95.6688L147.327 92.2084L143.922 72.8848Z" fill="#A3D5FF"/>
<path d="M128.004 95.6143L147.328 92.2087L152.269 95.6691L132.945 99.0747L128.004 95.6143Z" fill="#279AF1"/>
<rect x="59.3755" y="30.6113" width="19.6214" height="19.6214" transform="rotate(-9.99517 59.3755 30.6113)" fill="#D1EAFF"/>
<path d="M78.6992 27.2061L83.6403 30.6665L87.0459 49.9901L82.1048 46.5297L78.6992 27.2061Z" fill="#A3D5FF"/>
<path d="M62.7812 49.9355L82.1048 46.53L87.046 49.9904L67.7224 53.396L62.7812 49.9355Z" fill="#279AF1"/>
<rect x="132.169" y="30.7754" width="19.6214" height="19.6214" transform="rotate(-9.99517 132.169 30.7754)" fill="#D1EAFF"/>
<path d="M151.493 27.3701L156.434 30.8306L159.84 50.1542L154.899 46.6937L151.493 27.3701Z" fill="#A3D5FF"/>
<path d="M135.575 50.0996L154.899 46.694L159.84 50.1545L140.516 53.56L135.575 50.0996Z" fill="#279AF1"/>
<rect x="76.0688" y="76.1787" width="19.6214" height="19.6214" transform="rotate(-9.99517 76.0688 76.1787)" fill="#D1EAFF"/>
<path d="M95.3926 72.7734L100.334 76.2339L103.739 95.5575L98.7982 92.097L95.3926 72.7734Z" fill="#A3D5FF"/>
<path d="M79.4746 95.5029L98.7982 92.0973L103.739 95.5578L84.4157 98.9634L79.4746 95.5029Z" fill="#279AF1"/>
<rect x="148.863" y="76.3438" width="19.6214" height="19.6214" transform="rotate(-9.99517 148.863 76.3438)" fill="#D1EAFF"/>
<path d="M168.188 72.9385L173.129 76.3989L176.534 95.7225L171.593 92.2621L168.188 72.9385Z" fill="#A3D5FF"/>
<path d="M152.269 95.668L171.593 92.2624L176.534 95.7228L157.21 99.1284L152.269 95.668Z" fill="#279AF1"/>
<rect x="19.1929" y="53.2852" width="19.6214" height="19.6214" transform="rotate(-9.99517 19.1929 53.2852)" fill="#D1EAFF"/>
<path d="M38.5171 49.8799L43.4582 53.3403L46.8638 72.6639L41.9227 69.2035L38.5171 49.8799Z" fill="#A3D5FF"/>
<path d="M22.5986 72.6094L41.9222 69.2038L46.8634 72.6642L27.5398 76.0698L22.5986 72.6094Z" fill="#279AF1"/>
<rect x="91.9868" y="53.4502" width="19.6214" height="19.6214" transform="rotate(-9.99517 91.9868 53.4502)" fill="#D1EAFF"/>
<path d="M111.311 50.0449L116.252 53.5054L119.658 72.829L114.717 69.3685L111.311 50.0449Z" fill="#A3D5FF"/>
<path d="M95.3926 72.7734L114.716 69.3678L119.657 72.8283L100.334 76.2339L95.3926 72.7734Z" fill="#279AF1"/>
<rect x="35.8867" y="98.8535" width="19.6214" height="19.6214" transform="rotate(-9.99517 35.8867 98.8535)" fill="#D1EAFF"/>
<path d="M55.2109 95.4482L60.1521 98.9087L63.5577 118.232L58.6165 114.772L55.2109 95.4482Z" fill="#A3D5FF"/>
<path d="M39.2925 118.177L58.6161 114.771L63.5572 118.232L44.2336 121.637L39.2925 118.177Z" fill="#279AF1"/>
<rect x="108.681" y="99.0186" width="19.6214" height="19.6214" transform="rotate(-9.99517 108.681 99.0186)" fill="#D1EAFF"/>
<path d="M128.004 95.6133L132.946 99.0737L136.351 118.397L131.41 114.937L128.004 95.6133Z" fill="#A3D5FF"/>
<path d="M112.086 118.343L131.41 114.937L136.351 118.398L117.028 121.803L112.086 118.343Z" fill="#279AF1"/>
<rect x="44.2329" y="121.638" width="19.6214" height="19.6214" transform="rotate(-9.99517 44.2329 121.638)" fill="#D1EAFF"/>
<path d="M63.5571 118.232L68.4983 121.693L71.9039 141.016L66.9627 137.556L63.5571 118.232Z" fill="#A3D5FF"/>
<path d="M47.6387 140.962L66.9623 137.556L71.9034 141.017L52.5798 144.422L47.6387 140.962Z" fill="#279AF1"/>
<rect x="117.027" y="121.804" width="19.6214" height="19.6214" transform="rotate(-9.99517 117.027 121.804)" fill="#D1EAFF"/>
<path d="M136.352 118.398L141.293 121.859L144.698 141.182L139.757 137.722L136.352 118.398Z" fill="#A3D5FF"/>
<path d="M120.433 141.127L139.757 137.721L144.698 141.182L125.374 144.587L120.433 141.127Z" fill="#279AF1"/>
<rect x="43.4575" y="53.3398" width="19.6214" height="19.6214" transform="rotate(-9.99517 43.4575 53.3398)" fill="#D1EAFF"/>
<path d="M62.7817 49.9346L67.7229 53.395L71.1285 72.7186L66.1873 69.2582L62.7817 49.9346Z" fill="#A3D5FF"/>
<path d="M46.8633 72.6641L66.1869 69.2585L71.128 72.7189L51.8044 76.1245L46.8633 72.6641Z" fill="#279AF1"/>
<rect x="116.252" y="53.5049" width="19.6214" height="19.6214" transform="rotate(-9.99517 116.252 53.5049)" fill="#D1EAFF"/>
<path d="M135.576 50.0996L140.517 53.56L143.923 72.8836L138.982 69.4232L135.576 50.0996Z" fill="#A3D5FF"/>
<path d="M119.658 72.8291L138.981 69.4235L143.922 72.8839L124.599 76.2895L119.658 72.8291Z" fill="#279AF1"/>
<rect x="60.1514" y="98.9082" width="19.6214" height="19.6214" transform="rotate(-9.99517 60.1514 98.9082)" fill="#D1EAFF"/>
<path d="M79.4756 95.5029L84.4167 98.9634L87.8223 118.287L82.8812 114.827L79.4756 95.5029Z" fill="#A3D5FF"/>
<path d="M63.5571 118.232L82.8807 114.827L87.8219 118.287L68.4983 121.693L63.5571 118.232Z" fill="#279AF1"/>
<rect x="68.4976" y="121.693" width="19.6214" height="19.6214" transform="rotate(-9.99517 68.4976 121.693)" fill="#D1EAFF"/>
<path d="M87.8213 118.288L92.7624 121.749L96.168 141.072L91.2269 137.612L87.8213 118.288Z" fill="#A3D5FF"/>
<path d="M71.9033 141.017L91.2269 137.611L96.168 141.071L76.8444 144.477L71.9033 141.017Z" fill="#279AF1"/>
<rect x="141.292" y="121.857" width="19.6214" height="19.6214" transform="rotate(-9.99517 141.292 121.857)" fill="#D1EAFF"/>
<path d="M160.616 118.452L165.557 121.913L168.963 141.236L164.022 137.776L160.616 118.452Z" fill="#A3D5FF"/>
<path d="M144.698 141.182L164.022 137.776L168.963 141.236L149.639 144.642L144.698 141.182Z" fill="#279AF1"/>
<rect x="140.517" y="53.5596" width="19.6214" height="19.6214" transform="rotate(-9.99517 140.517 53.5596)" fill="#D1EAFF"/>
<path d="M159.84 50.1543L164.781 53.6147L168.187 72.9383L163.246 69.4779L159.84 50.1543Z" fill="#A3D5FF"/>
<path d="M143.922 72.8838L163.246 69.4782L168.187 72.9386L148.863 76.3442L143.922 72.8838Z" fill="#279AF1"/>
<rect x="84.4155" y="98.9639" width="19.6214" height="19.6214" transform="rotate(-9.99517 84.4155 98.9639)" fill="#D1EAFF"/>
<path d="M103.74 95.5586L108.681 99.019L112.086 118.343L107.145 114.882L103.74 95.5586Z" fill="#A3D5FF"/>
<path d="M87.8213 118.288L107.145 114.882L112.086 118.343L92.7624 121.749L87.8213 118.288Z" fill="#279AF1"/>
<rect x="157.21" y="99.127" width="19.6214" height="19.6214" transform="rotate(-9.99517 157.21 99.127)" fill="#D1EAFF"/>
<path d="M176.534 95.7217L181.475 99.1821L184.88 118.506L179.939 115.045L176.534 95.7217Z" fill="#A3D5FF"/>
<path d="M160.616 118.451L179.939 115.046L184.88 118.506L165.557 121.912L160.616 118.451Z" fill="#279AF1"/>
<rect x="165.557" y="121.911" width="19.6214" height="19.6214" transform="rotate(-9.99517 165.557 121.911)" fill="#D1EAFF"/>
<path d="M184.881 118.506L189.822 121.966L193.228 141.29L188.286 137.829L184.881 118.506Z" fill="#A3D5FF"/>
<path d="M168.963 141.235L188.286 137.83L193.228 141.29L173.904 144.696L168.963 141.235Z" fill="#279AF1"/>
<rect x="102.964" y="27.2607" width="19.6214" height="19.6214" transform="rotate(-9.99517 102.964 27.2607)" fill="#D1EAFF"/>
<path d="M122.288 23.8555L127.229 27.3159L130.635 46.6395L125.694 43.1791L122.288 23.8555Z" fill="#A3D5FF"/>
<path d="M106.37 46.584L125.693 43.1784L130.634 46.6388L111.311 50.0444L106.37 46.584Z" fill="#279AF1"/>
<rect x="55.2104" y="95.4482" width="19.6214" height="19.6214" transform="rotate(-9.99517 55.2104 95.4482)" fill="#D1EAFF"/>
<path d="M74.5347 92.043L79.4758 95.5034L82.8814 114.827L77.9403 111.367L74.5347 92.043Z" fill="#A3D5FF"/>
<path d="M58.6162 114.772L77.9398 111.367L82.8809 114.827L63.5573 118.233L58.6162 114.772Z" fill="#279AF1"/>
<rect x="20.0459" y="121.555" width="19.6214" height="19.6214" transform="rotate(-9.99517 20.0459 121.555)" fill="#D1EAFF"/>
<path d="M39.3691 118.149L44.3103 121.61L47.7159 140.933L42.7747 137.473L39.3691 118.149Z" fill="#A3D5FF"/>
<path d="M23.4512 140.879L42.7748 137.473L47.7159 140.934L28.3923 144.339L23.4512 140.879Z" fill="#279AF1"/>
<rect x="11.8057" y="98.8193" width="19.6214" height="19.6214" transform="rotate(-9.99517 11.8057 98.8193)" fill="#D1EAFF"/>
<path d="M31.1294 95.4141L36.0705 98.8745L39.4761 118.198L34.535 114.738L31.1294 95.4141Z" fill="#A3D5FF"/>
<path d="M15.2114 118.144L34.535 114.738L39.4762 118.198L20.1526 121.604L15.2114 118.144Z" fill="#279AF1"/>
</svg>
