<svg width="64" height="64" viewBox="0 0 64 64" fill="none" xmlns="http://www.w3.org/2000/svg">
<g clip-path="url(#clip0_3779_24779)">
<path opacity="0.3" d="M55.3014 14.2726C56.2553 13.1504 57.9382 13.014 59.0603 13.9678C60.1825 14.9216 60.3189 16.6045 59.3651 17.7267L36.6985 44.3934C35.7296 45.5331 34.013 45.6532 32.895 44.6594L20.895 33.9927C19.7942 33.0143 19.6951 31.3288 20.6735 30.228C21.652 29.1272 23.3375 29.0281 24.4382 30.0065L34.4005 38.8619L55.3014 14.2726Z" fill="#FCFCFC"/>
<path d="M41.9679 16.9396C42.9218 15.8174 44.6047 15.681 45.7268 16.6348C46.849 17.5886 46.9855 19.2715 46.0316 20.3937L23.365 47.0604C22.3962 48.2001 20.6795 48.3202 19.5615 47.3264L7.56148 36.6597C6.46072 35.6813 6.36158 33.9957 7.34002 32.895C8.31847 31.7942 10.004 31.6951 11.1048 32.6735L21.067 41.5289L41.9679 16.9396Z" fill="#FCFCFC"/>
</g>
<defs>
<clipPath id="clip0_3779_24779">
<rect width="64" height="64" fill="white"/>
</clipPath>
</defs>
</svg>
