<svg width="32" height="32" viewBox="0 0 32 32" fill="none" xmlns="http://www.w3.org/2000/svg">
<path opacity="0.3" d="M10.6666 6.66634C9.93021 6.66634 9.33325 7.26329 9.33325 7.99967C9.33325 8.73605 9.93021 9.33301 10.6666 9.33301L23.9999 9.33301C24.7363 9.33301 25.3333 8.73605 25.3333 7.99967C25.3333 7.26329 24.7363 6.66634 23.9999 6.66634L10.6666 6.66634Z" fill="#215786"/>
<path d="M12.9427 11.0575C13.4634 11.5782 13.4634 12.4224 12.9427 12.9431C12.422 13.4638 11.5778 13.4638 11.0571 12.9431L7.05711 8.94313C6.53641 8.42243 6.53641 7.57822 7.05711 7.05752L11.0571 3.05752C11.5778 2.53682 12.422 2.53682 12.9427 3.05752C13.4634 3.57822 13.4634 4.42244 12.9427 4.94313L9.88554 8.00033L12.9427 11.0575Z" fill="#215786"/>
<path opacity="0.3" d="M21.3334 22.6663C22.0698 22.6663 22.6667 23.2633 22.6667 23.9997C22.6667 24.7361 22.0698 25.333 21.3334 25.333H8.00008C7.2637 25.333 6.66675 24.7361 6.66675 23.9997C6.66675 23.2633 7.2637 22.6663 8.00008 22.6663H21.3334Z" fill="#215786"/>
<path d="M19.0573 27.0575C18.5366 27.5782 18.5366 28.4224 19.0573 28.9431C19.578 29.4638 20.4222 29.4638 20.9429 28.9431L24.9429 24.9431C25.4636 24.4224 25.4636 23.5782 24.9429 23.0575L20.9429 19.0575C20.4222 18.5368 19.578 18.5368 19.0573 19.0575C18.5366 19.5782 18.5366 20.4224 19.0573 20.9431L22.1145 24.0003L19.0573 27.0575Z" fill="#215786"/>
</svg>
