<svg width="62" height="62" viewBox="0 0 62 62" fill="none" xmlns="http://www.w3.org/2000/svg">
<path d="M31 11.625C20.2953 11.625 11.625 20.2953 11.625 31C11.625 41.7047 20.2989 50.375 31 50.375C41.7011 50.375 50.375 41.7011 50.375 31C50.375 20.2989 41.7047 11.625 31 11.625Z" fill="#279AF1"/>
<path d="M35.8438 29.0625C37.4543 29.0625 38.75 27.7668 38.75 26.1562C38.75 24.5457 37.4543 23.25 35.8438 23.25C34.2332 23.25 32.9375 24.5457 32.9375 26.1562C32.9375 27.7668 34.2332 29.0625 35.8438 29.0625ZM26.1562 29.0625C27.7607 29.0625 29.0625 27.7607 29.0625 26.1562C29.0625 24.5518 27.7668 23.25 26.1562 23.25C24.5457 23.25 23.25 24.5457 23.25 26.1562C23.25 27.7668 24.5457 29.0625 26.1562 29.0625Z" fill="#1A4E7B"/>
<path d="M17.4375 58.125H5.8125C4.74324 58.125 3.875 57.2531 3.875 56.1875V44.5625C3.875 43.4969 3.00797 42.625 1.9375 42.625C0.867031 42.625 0 43.4969 0 44.5625V56.1875C0 59.3965 2.60715 62 5.8125 62H17.4375C18.5031 62 19.375 61.1281 19.375 60.0625C19.375 58.9969 18.5031 58.125 17.4375 58.125ZM1.9375 19.375C3.00797 19.375 3.875 18.5031 3.875 17.4375V5.8125C3.875 4.74566 4.74324 3.875 5.8125 3.875H17.4375C18.5031 3.875 19.375 3.00797 19.375 1.9375C19.375 0.867031 18.5031 0 17.4375 0H5.8125C2.60715 0 0 2.60715 0 5.8125V17.4375C0 18.5031 0.866547 19.375 1.9375 19.375ZM60.0625 42.625C58.9915 42.625 58.125 43.4915 58.125 44.5625V56.1875C58.125 57.2546 57.2565 58.125 56.1875 58.125H44.5625C43.4915 58.125 42.625 58.9915 42.625 60.0625C42.625 61.1335 43.4915 62 44.5625 62H56.1875C59.3929 62 62 59.3929 62 56.1875V44.5625C62 43.4969 61.1281 42.625 60.0625 42.625ZM56.1875 0H44.5625C43.4969 0 42.625 0.866547 42.625 1.9375C42.625 3.00845 43.4969 3.875 44.5625 3.875H56.1875C57.2531 3.875 58.125 4.74566 58.125 5.8125V17.4375C58.125 18.5031 58.9969 19.375 60.0625 19.375C61.1281 19.375 62 18.5031 62 17.4375V5.8125C62 2.60715 59.3965 0 56.1875 0Z" fill="#D9DBE9"/>
</svg>
