<svg width="32" height="26" viewBox="0 0 32 26" fill="none" xmlns="http://www.w3.org/2000/svg">
<path d="M9.6 3.2002C4.3 3.2002 0 7.5002 0 12.8002C0 18.1002 4.3 22.4002 9.6 22.4002H22.4C27.7 22.4002 32 18.1002 32 12.8002C32 7.5002 27.7 3.2002 22.4 3.2002H9.6ZM24.8 12.4002C23.695 12.4002 22.8 11.5052 22.8 10.4002C22.8 9.2952 23.695 8.4002 24.8 8.4002C25.905 8.4002 26.8 9.2952 26.8 10.4002C26.8 11.5052 25.905 12.4002 24.8 12.4002ZM23.6 15.2002C23.6 16.3052 22.705 17.2002 21.6 17.2002C20.495 17.2002 19.6 16.3052 19.6 15.2002C19.6 14.0952 20.495 13.2002 21.6 13.2002C22.705 13.2002 23.6 14.0952 23.6 15.2002ZM8.4 10.0002C8.4 9.3352 8.935 8.8002 9.6 8.8002C10.265 8.8002 10.8 9.3352 10.8 10.0002V11.6002H12.4C13.065 11.6002 13.6 12.1352 13.6 12.8002C13.6 13.4652 13.065 14.0002 12.4 14.0002H10.8V15.6002C10.8 16.2652 10.265 16.8002 9.6 16.8002C8.935 16.8002 8.4 16.2652 8.4 15.6002V14.0002H6.8C6.135 14.0002 5.6 13.4652 5.6 12.8002C5.6 12.1352 6.135 11.6002 6.8 11.6002H8.4V10.0002Z" fill="#215786"/>
</svg>
