<svg width="32" height="32" viewBox="0 0 32 32" fill="none" xmlns="http://www.w3.org/2000/svg">
<path fill-rule="evenodd" clip-rule="evenodd" d="M22.6668 16H24.6668C25.7714 16 26.6668 16.8954 26.6668 18C26.6668 19.1046 25.7714 20 24.6668 20H7.3335C6.22893 20 5.3335 19.1046 5.3335 18C5.3335 16.8954 6.22893 16 7.3335 16H9.3335L10.0779 9.30071C10.4132 6.28301 12.9639 4 16.0002 4C19.0364 4 21.5872 6.28301 21.9225 9.30071L22.6668 16Z" fill="#6E7191"/>
<path opacity="0.3" d="M18.6668 23.9997C18.6668 22.5269 17.4729 21.333 16.0002 21.333C14.5274 21.333 13.3335 22.5269 13.3335 23.9997C13.3335 25.4724 14.5274 26.6663 16.0002 26.6663C17.4729 26.6663 18.6668 25.4724 18.6668 23.9997Z" fill="#6E7191"/>
</svg>
