<svg width="16" height="16" viewBox="0 0 16 16" fill="none" xmlns="http://www.w3.org/2000/svg">
<g clip-path="url(#clip0_5466_36719)">
<path d="M11.6594 0.658992C12.5375 -0.219664 13.9625 -0.219664 14.8406 0.658992L15.2188 1.03774C16.0969 1.91649 16.0969 3.34118 15.2188 4.2193L9.05625 10.3849C8.78437 10.6537 8.45 10.8506 8.08125 10.9568L4.95625 11.8506C4.69375 11.9256 4.4125 11.8506 4.21875 11.6318C4.02812 11.4662 3.95312 11.1849 4.02812 10.9224L4.92188 7.79743C5.02812 7.42868 5.225 7.0943 5.49375 6.82243L11.6594 0.658992ZM13.7531 1.71962C13.4875 1.4268 13.0125 1.4268 12.7188 1.71962L11.8094 2.62868L13.25 4.0693L14.1594 3.1318C14.4531 2.86618 14.4531 2.39118 14.1594 2.09837L13.7531 1.71962ZM6.36562 8.20993L5.84062 10.0381L7.66875 9.51305C7.79375 9.47868 7.90313 9.41305 7.99375 9.32243L12.1906 5.12868L10.75 3.68805L6.55625 7.88493C6.46563 7.97555 6.4 8.08493 6.36562 8.20993ZM6.25 1.87868C6.66563 1.87868 7 2.21462 7 2.62868C7 3.0443 6.66563 3.37868 6.25 3.37868H2.75C2.05969 3.37868 1.5 3.93805 1.5 4.62868V13.1287C1.5 13.8193 2.05969 14.3787 2.75 14.3787H11.25C11.9406 14.3787 12.5 13.8193 12.5 13.1287V9.62868C12.5 9.21305 12.8344 8.87868 13.25 8.87868C13.6656 8.87868 14 9.21305 14 9.62868V13.1287C14 14.6474 12.7688 15.8787 11.25 15.8787H2.75C1.23125 15.8787 0 14.6474 0 13.1287V4.62868C0 3.10993 1.23125 1.87868 2.75 1.87868H6.25Z" fill="#A0A3BD"/>
</g>
<defs>
<clipPath id="clip0_5466_36719">
<rect width="16" height="16" fill="white"/>
</clipPath>
</defs>
</svg>
