<svg width="32" height="32" viewBox="0 0 32 32" fill="none" xmlns="http://www.w3.org/2000/svg">
<path opacity="0.3" d="M15.9998 29.3337C23.3636 29.3337 29.3332 23.3641 29.3332 16.0003C29.3332 8.63653 23.3636 2.66699 15.9998 2.66699C8.63604 2.66699 2.6665 8.63653 2.6665 16.0003C2.6665 23.3641 8.63604 29.3337 15.9998 29.3337Z" fill="#215786"/>
<path fill-rule="evenodd" clip-rule="evenodd" d="M14.6667 14.6667V9.33333C14.6667 8.59695 15.2636 8 16 8C16.7364 8 17.3333 8.59695 17.3333 9.33333V14.6667H22.6667C23.403 14.6667 24 15.2636 24 16C24 16.7364 23.403 17.3333 22.6667 17.3333H17.3333V22.6667C17.3333 23.403 16.7364 24 16 24C15.2636 24 14.6667 23.403 14.6667 22.6667V17.3333H9.33333C8.59695 17.3333 8 16.7364 8 16C8 15.2636 8.59695 14.6667 9.33333 14.6667H14.6667Z" fill="#215786"/>
</svg>
