<svg width="17" height="16" viewBox="0 0 17 16" fill="none" xmlns="http://www.w3.org/2000/svg">
<path d="M3.1875 0.0692021C3.45312 -0.0526729 3.76562 -0.00892293 3.9875 0.181702L5.25 1.26295L6.5125 0.181702C6.79375 -0.0589229 7.20938 -0.0589229 7.4875 0.181702L8.75 1.26295L10.0125 0.181702C10.2937 -0.0589229 10.7063 -0.0589229 10.9875 0.181702L12.25 1.26295L13.5125 0.181702C13.7344 -0.00892293 14.0469 -0.0526729 14.3125 0.0692021C14.5781 0.191077 14.75 0.456702 14.75 0.750452V15.2505C14.75 15.5442 14.5781 15.8098 14.3125 15.9317C14.0469 16.0536 13.7344 16.0098 13.5125 15.8192L12.25 14.738L10.9875 15.8192C10.7063 16.0598 10.2937 16.0598 10.0125 15.8192L8.75 14.738L7.4875 15.8192C7.20625 16.0598 6.79063 16.0598 6.5125 15.8192L5.25 14.738L3.9875 15.8192C3.76562 16.0098 3.45312 16.0536 3.1875 15.9317C2.92188 15.8098 2.75 15.5442 2.75 15.2505V0.750452C2.75 0.456702 2.92188 0.191077 3.1875 0.0692021ZM5.75 4.50045C5.475 4.50045 5.25 4.72545 5.25 5.00045C5.25 5.27545 5.475 5.50045 5.75 5.50045H11.75C12.025 5.50045 12.25 5.27545 12.25 5.00045C12.25 4.72545 12.025 4.50045 11.75 4.50045H5.75ZM5.25 11.0005C5.25 11.2755 5.475 11.5005 5.75 11.5005H11.75C12.025 11.5005 12.25 11.2755 12.25 11.0005C12.25 10.7255 12.025 10.5005 11.75 10.5005H5.75C5.475 10.5005 5.25 10.7255 5.25 11.0005ZM5.75 7.50045C5.475 7.50045 5.25 7.72545 5.25 8.00045C5.25 8.27545 5.475 8.50045 5.75 8.50045H11.75C12.025 8.50045 12.25 8.27545 12.25 8.00045C12.25 7.72545 12.025 7.50045 11.75 7.50045H5.75Z" fill="#F7F7FC"/>
</svg>
