<svg width="32" height="32" viewBox="0 0 32 32" fill="none" xmlns="http://www.w3.org/2000/svg">
<path opacity="0.3" fill-rule="evenodd" clip-rule="evenodd" d="M5.33317 5.33301H26.6665C28.1393 5.33301 29.3332 6.52691 29.3332 7.99967V23.9997C29.3332 25.4724 28.1393 26.6663 26.6665 26.6663H5.33317C3.86041 26.6663 2.6665 25.4724 2.6665 23.9997V7.99967C2.6665 6.52691 3.86041 5.33301 5.33317 5.33301Z" fill="#215786"/>
<path fill-rule="evenodd" clip-rule="evenodd" d="M24.6668 14.667H7.3335C6.22893 14.667 5.3335 15.5624 5.3335 16.667V17.3337H11.4479C11.8015 17.3337 12.1406 17.4741 12.3907 17.7242L13.724 19.0575C14.3277 19.6612 15.1464 20.0003 16.0002 20.0003C16.8539 20.0003 17.6726 19.6612 18.2763 19.0575L19.6096 17.7242C19.8597 17.4741 20.1988 17.3337 20.5524 17.3337H26.6668V16.667C26.6668 15.5624 25.7714 14.667 24.6668 14.667Z" fill="#215786"/>
<path fill-rule="evenodd" clip-rule="evenodd" d="M7.3335 8C6.22893 8 5.3335 8.89543 5.3335 10V10.6667H26.6668V10C26.6668 8.89543 25.7714 8 24.6668 8H7.3335Z" fill="#215786"/>
</svg>
