<svg width="32" height="32" viewBox="0 0 32 32" fill="none" xmlns="http://www.w3.org/2000/svg">
<path opacity="0.3" d="M27.3333 18.667C28.4378 18.667 29.3333 17.7716 29.3333 16.667C29.3333 15.5624 28.4378 14.667 27.3333 14.667C26.2287 14.667 25.3333 15.5624 25.3333 16.667C25.3333 17.7716 26.2287 18.667 27.3333 18.667Z" fill="#215786"/>
<path opacity="0.3" d="M25.0955 1.39808L4.48907 6.91956C3.77778 7.11015 3.35567 7.84126 3.54626 8.55255L5.27172 14.9921C5.46231 15.7033 6.19343 16.1255 6.90472 15.9349L27.5111 10.4134C28.2224 10.2228 28.6445 9.49169 28.4539 8.7804L26.7285 2.34089C26.5379 1.6296 25.8068 1.20749 25.0955 1.39808Z" fill="#215786"/>
<path fill-rule="evenodd" clip-rule="evenodd" d="M29.3334 12.4488C28.7272 12.1608 28.0491 11.9997 27.3334 11.9997C24.7561 11.9997 22.6667 14.089 22.6667 16.6663C22.6667 19.2437 24.7561 21.333 27.3334 21.333C28.0491 21.333 28.7272 21.1719 29.3334 20.8839V23.9997C29.3334 25.4724 28.1395 26.6663 26.6667 26.6663H5.33341C3.86066 26.6663 2.66675 25.4724 2.66675 23.9997V7.99967C2.66675 6.52691 3.86066 5.33301 5.33341 5.33301H26.6667C28.1395 5.33301 29.3334 6.52691 29.3334 7.99967V12.4488Z" fill="#215786"/>
</svg>
